<?xml version="1.0" encoding="UTF-8"?>
<svg xmlns="http://www.w3.org/2000/svg" width="1200" height="700" viewBox="0 0 1200 700" role="img" aria-label="System Diagram">
  <rect width="1200" height="700" fill="#0b0b0b"/>
  <g font-family="Inter, Arial, sans-serif" font-size="18" fill="#eaeaea">
    <rect x="60" y="80" width="300" height="120" rx="12" fill="#1f2937" stroke="#4b5563"/>
    <text x="210" y="145" text-anchor="middle">Query</text>

    <rect x="420" y="80" width="300" height="120" rx="12" fill="#1f2937" stroke="#4b5563"/>
    <text x="570" y="115" text-anchor="middle">Retriever</text>
    <text x="570" y="145" text-anchor="middle">Top-k Passages</text>

    <rect x="780" y="80" width="360" height="220" rx="12" fill="#1f2937" stroke="#4b5563"/>
    <text x="960" y="115" text-anchor="middle">KG Expansion</text>
    <text x="960" y="145" text-anchor="middle">Entity Linking · Neighbor Scoring</text>

    <rect x="60" y="300" width="520" height="140" rx="12" fill="#1f2937" stroke="#4b5563"/>
    <text x="320" y="360" text-anchor="middle">Expanded Passages</text>

    <rect x="620" y="300" width="520" height="140" rx="12" fill="#1f2937" stroke="#4b5563"/>
    <text x="880" y="335" text-anchor="middle">Reader / LLM</text>
    <text x="880" y="365" text-anchor="middle">Answer Extraction / Generation</text>

    <defs>
      <marker id="arrow" markerWidth="10" markerHeight="10" refX="6" refY="3" orient="auto" markerUnits="strokeWidth">
        <path d="M0,0 L0,6 L9,3 z" fill="#cbd5e1" />
      </marker>
    </defs>
    <g stroke="#cbd5e1" stroke-width="2" fill="none" marker-end="url(#arrow)">
      <line x1="360" y1="140" x2="420" y2="140" />
      <line x1="720" y1="140" x2="780" y2="140" />
      <line x1="960" y1="300" x2="960" y2="200" />
      <line x1="320" y1="370" x2="620" y2="370" />
    </g>
  </g>
</svg>

